{
    "asset" : {
        "generator" : "Khronos glTF Blender I/O v1.8.19",
        "version" : "2.0"
    },
    "scene" : 0,
    "scenes" : [
        {
            "name" : "Scene",
            "nodes" : [
                0
            ]
        }
    ],
    "nodes" : [
        {
            "mesh" : 0,
            "name" : "\u52a8\u7269_\u5927\u8c61"
        }
    ],
    "materials" : [
        {
            "doubleSided" : true,
            "name" : "Mat3d66-811697-3-1609",
            "pbrMetallicRoughness" : {
                "baseColorTexture" : {
                    "index" : 0
                },
                "metallicFactor" : 0,
                "roughnessFactor" : 0.8700787425041199
            }
        }
    ],
    "meshes" : [
        {
            "name" : "Obj3d66-811697-24-741",
            "primitives" : [
                {
                    "attributes" : {
                        "POSITION" : 0,
                        "NORMAL" : 1,
                        "TEXCOORD_0" : 2,
                        "TEXCOORD_1" : 3
                    },
                    "indices" : 4,
                    "material" : 0
                }
            ]
        }
    ],
    "textures" : [
        {
            "sampler" : 0,
            "source" : 0
        }
    ],
    "images" : [
        {
            "bufferView" : 5,
            "mimeType" : "image/jpeg",
            "name" : "3d66Model-811697-files-11"
        }
    ],
    "accessors" : [
        {
            "bufferView" : 0,
            "componentType" : 5126,
            "count" : 1492,
            "max" : [
                4.67246675491333,
                4.334020137786865,
                3.3479197025299072
            ],
            "min" : [
                -2.218783378601074,
                1.6996636986732483e-08,
                -2.001037359237671
            ],
            "type" : "VEC3"
        },
        {
            "bufferView" : 1,
            "componentType" : 5126,
            "count" : 1492,
            "type" : "VEC3"
        },
        {
            "bufferView" : 2,
            "componentType" : 5126,
            "count" : 1492,
            "type" : "VEC2"
        },
        {
            "bufferView" : 3,
            "componentType" : 5126,
            "count" : 1492,
            "type" : "VEC2"
        },
        {
            "bufferView" : 4,
            "componentType" : 5123,
            "count" : 7596,
            "type" : "SCALAR"
        }
    ],
    "bufferViews" : [
        {
            "buffer" : 0,
            "byteLength" : 17904,
            "byteOffset" : 0
        },
        {
            "buffer" : 0,
            "byteLength" : 17904,
            "byteOffset" : 17904
        },
        {
            "buffer" : 0,
            "byteLength" : 11936,
            "byteOffset" : 35808
        },
        {
            "buffer" : 0,
            "byteLength" : 11936,
            "byteOffset" : 47744
        },
        {
            "buffer" : 0,
            "byteLength" : 15192,
            "byteOffset" : 59680
        },
        {
            "buffer" : 0,
            "byteLength" : 376113,
            "byteOffset" : 74872
        }
    ],
    "samplers" : [
        {
            "magFilter" : 9729,
            "minFilter" : 9987
        }
    ],
    "buffers" : [
        {
            "byteLength" : 450988,
            "uri" : "data:application/octet-stream;base64,"
        }
    ]
}
